<svg xmlns="http://www.w3.org/2000/svg" viewBox="0 0 32 32" fill="none">
  <rect width="32" height="32" rx="8" fill="#2563EB"/>
  <!-- Dent réaliste avec couronne et deux racines -->
  <g transform="translate(16,16)">
    <!-- Couronne de la dent -->
    <path d="M-5.5,-8 C-5.5,-8 -6,-4 -5.5,-2 C-5,-0.5 -3.5,0.5 -2.5,1 C-1.5,1.5 -0.5,1.8 0,1.8 C0.5,1.8 1.5,1.5 2.5,1 C3.5,0.5 5,-0.5 5.5,-2 C6,-4 5.5,-8 5.5,-8 C5.5,-8 4,-11 0,-11 C-4,-11 -5.5,-8 -5.5,-8 Z" fill="white"/>
    <!-- Racine gauche -->
    <path d="M-3,1.5 C-3.2,3.5 -3.8,6 -4.2,8 C-4.5,9.5 -4.2,11 -3,11 C-1.8,11 -1.5,9.5 -1.5,8 C-1.5,6.5 -1.5,4 -1.2,2" fill="white"/>
    <!-- Racine droite -->
    <path d="M3,1.5 C3.2,3.5 3.8,6 4.2,8 C4.5,9.5 4.2,11 3,11 C1.8,11 1.5,9.5 1.5,8 C1.5,6.5 1.5,4 1.2,2" fill="white"/>
    <!-- Ligne de séparation couronne/racines -->
    <path d="M-4,0 C-2,1.5 2,1.5 4,0" stroke="#2563EB" stroke-width="0.5" fill="none" opacity="0.3"/>
  </g>
</svg>
